<?xml version="1.0" encoding="utf-8"?>
<!-- Svg Vector Icons : http://www.onlinewebfonts.com/icon -->
<!DOCTYPE svg PUBLIC "-//W3C//DTD SVG 1.1//EN" "http://www.w3.org/Graphics/SVG/1.1/DTD/svg11.dtd">
<svg version="1.1" xmlns="http://www.w3.org/2000/svg" xmlns:xlink="http://www.w3.org/1999/xlink" x="0px" y="0px" viewBox="0 0 1000 1000" enable-background="new 0 0 1000 1000" xml:space="preserve">
<metadata> Svg Vector Icons : http://www.onlinewebfonts.com/icon </metadata>
<g><g><path d="M500,10C229.4,10,10,229.4,10,500c0,270.6,219.4,490,490,490c270.6,0,490-219.4,490-490C990,229.4,770.6,10,500,10z M500,913.4C271.7,913.4,86.6,728.3,86.6,500S271.7,86.6,500,86.6S913.4,271.7,913.4,500S728.3,913.4,500,913.4z"/><path d="M713.9,438.5l-0.2-61.5l-26.9-15.3L499.4,255l-187,107.5L285.6,378l0.1,60.9l0.4,184l160,91.1l27.4,15.6l26.4,15l0.5,0.3l53.7-30.9L714.4,622L713.9,438.5z M499.6,316.5l133.6,76l-133.3,76.7l-133.7-76.1L499.6,316.5z M339.9,592.1l-0.4-152.7l133.1,75.8l0.4,152.7L339.9,592.1z M527.2,668l-0.4-152.7l133.2-76.7l0.5,152.8L527.2,668z"/></g><g></g><g></g><g></g><g></g><g></g><g></g><g></g><g></g><g></g><g></g><g></g><g></g><g></g><g></g><g></g></g>
</svg>